<svg width="160" height="60" xmlns="http://www.w3.org/2000/svg" version="1.0" preserveAspectRatio="xMidYMid meet">
 <g>
  <title>Layer 1</title>
  <g id="svg_1">
   <path d="m63.04672,10.2c-2.6,1.2 -3.8,6.7 -2.7,12.2c0.7,4 2.6,5.6 13.4,11.2c5,2.7 5.5,3.2 5.8,6.6l0.3,3.8l-9.5,0l-9.6,0l0,3.5l0,3.5l12,0c14,0 14,0 14,-10.3c0,-8.1 -1.4,-9.9 -11.4,-15.2c-6.7,-3.5 -7.6,-4.3 -7.6,-6.7l0,-2.8l9,0l9,0l0,-3.5l0,-3.5l-10.2,0.1c-5.7,0 -11.3,0.5 -12.5,1.1z" id="svg_4" fill="#fff" />
   <path d="m94.64673,10.5c-3.9,2.1 -4.9,6.3 -4.9,19.5c0,18.8 1.6,21 15.2,21c13.8,0 15.1,-2 14.6,-23c-0.3,-14.1 -0.3,-14.2 -3.1,-16.6c-2.5,-2.1 -3.8,-2.4 -11,-2.4c-5.2,0.1 -9.2,0.6 -10.8,1.5zm16.9,6.7c1.8,1.8 1.6,24.2 -0.2,25.7c-0.9,0.7 -3.8,1.1 -7.3,0.9l-5.8,-0.3l-0.3,-12.4c-0.1,-6.9 0,-13.1 0.2,-13.8c0.7,-1.7 11.7,-1.8 13.4,-0.1z" id="svg_5" fill="#fff" />
   <path d="m124.94673,10.6c-1.9,1.3 -2.2,2.4 -2.2,7.8c0,3.4 0.6,6.9 1.3,7.8c0.6,0.9 4.9,3.5 9.5,5.8c8.2,4.1 8.2,4.1 8.2,8l0,4l-9.5,0l-9.5,0l0,3.5l0,3.5l11.9,0c14.8,0 15.1,-0.2 15.1,-10.4c0,-8.6 -0.3,-9 -11.2,-14.6c-6.5,-3.3 -7.3,-4.1 -7.6,-6.9l-0.3,-3.1l9,0l9.1,0l0,-3.5l0,-3.5l-10.8,0c-8.1,0 -11.3,0.4 -13,1.6z" id="svg_6" fill="#fff" />
   <path fill="#fff" stroke="#000" stroke-width="0" d="m49.18907,26.99496c0.03396,-0.382 0.05362,-0.76791 0.05362,-1.15774c0,-6.76231 -5.00126,-12.24347 -11.1715,-12.24347c-4.78855,0 -8.86213,3.30868 -10.45116,7.9514c-1.0528,-1.26549 -2.55425,-2.07453 -4.23981,-2.07453c-3.17807,0 -5.75377,2.82285 -5.75377,6.30588c0,0.41138 0.04111,0.81297 0.11082,1.20084c-4.23981,0.76595 -7.48401,4.77202 -7.48401,9.63414c0,5.41063 4.00208,9.79478 8.9372,9.79478l28.37561,0c4.93691,0 8.9372,-4.38414 8.9372,-9.79478c0.00179,-4.8014 -3.15483,-8.77808 -7.3142,-9.61651l0,-0.00001z" id="svg_37" />
  </g>
 </g>

</svg>